<?xml version="1.0" encoding="UTF-8" standalone="no"?>
<!-- Created with Inkscape (http://www.inkscape.org/) -->

<svg
   xmlns:dc="http://purl.org/dc/elements/1.1/"
   xmlns:cc="http://creativecommons.org/ns#"
   xmlns:rdf="http://www.w3.org/1999/02/22-rdf-syntax-ns#"
   xmlns:svg="http://www.w3.org/2000/svg"
   xmlns="http://www.w3.org/2000/svg"
   xmlns:xlink="http://www.w3.org/1999/xlink"
   version="1.1"
   width="142.24573"
   height="142.21579"
   id="svg5046">
  <defs
     id="defs5048">
    <radialGradient
       cx="4502.7061"
       cy="6296.2231"
       r="73.794868"
       fx="4502.7061"
       fy="6296.2231"
       id="radialGradient17923"
       xlink:href="#linearGradient17913"
       gradientUnits="userSpaceOnUse"
       gradientTransform="matrix(0.99997278,-0.00737878,0.01086721,1.4727252,-68.82644,-2966.0752)" />
    <linearGradient
       id="linearGradient17913">
      <stop
         id="stop17915"
         style="stop-color:#466b87;stop-opacity:1"
         offset="0" />
      <stop
         id="stop17917"
         style="stop-color:#000000;stop-opacity:1"
         offset="1" />
    </linearGradient>
    <radialGradient
       cx="4502.7061"
       cy="6296.2231"
       r="73.794868"
       fx="4502.7061"
       fy="6296.2231"
       id="radialGradient5044"
       xlink:href="#linearGradient17913"
       gradientUnits="userSpaceOnUse"
       gradientTransform="matrix(0.99997278,-0.00737878,0.01086721,1.4727252,-68.82644,-2966.0752)" />
  </defs>
  <metadata
     id="metadata5051">
    <rdf:RDF>
      <cc:Work
         rdf:about="">
        <dc:format>image/svg+xml</dc:format>
        <dc:type
           rdf:resource="http://purl.org/dc/dcmitype/StillImage" />
        <dc:title></dc:title>
      </cc:Work>
    </rdf:RDF>
  </metadata>
  <g
     transform="translate(-197.45142,-432.68188)"
     id="layer1">
    <path
       d="m 4575.5732,6323.8291 a 73.794868,73.794868 0 1 1 -147.5897,0 73.794868,73.794868 0 1 1 147.5897,0 z"
       transform="matrix(0.9578837,0,0,0.9578837,-4043.6086,-5553.7021)"
       id="path16885-9-3-9-7"
       style="fill:url(#radialGradient5044);fill-opacity:1;stroke:#002641;stroke-width:0.89572459;stroke-miterlimit:4;stroke-opacity:1;stroke-dasharray:none" />
    <path
       d="m 248.45378,552.26462 c 4.2914,6.5493 11.7101,10.875 20.125,10.875 8.3898,0 15.7653,-4.2958 20.0624,-10.8125 -4.7095,5.7353 -11.9421,9.4063 -20.0624,9.4063 -8.1478,0 -15.4168,-3.7003 -20.125,-9.4688 z"
       id="path17221-6-0-6-2-7-8-7-7-9"
       style="fill:#0074b2;fill-opacity:1;stroke:none" />
    <path
       d="m 253.23498,556.76462 c 4.1193,3.5421 9.4848,5.6875 15.3438,5.6875 5.8381,0 11.1677,-2.1366 15.2812,-5.6563 -4.272,3.0873 -9.5558,4.9376 -15.2812,4.9376 -5.7503,0 -11.0621,-1.8571 -15.3438,-4.9688 z"
       id="path16885-6-1-2-9-9-6-6-8-6-1-4-8-9"
       style="fill:#00a6ff;fill-opacity:1;stroke:none" />
    <path
       d="m 276.35998,531.88962 c -0.7996,0 -1.5384,0.2187 -2.2188,0.5312 0.3927,-0.088 0.7997,-0.1562 1.2188,-0.1562 3.0758,0 5.5625,2.518 5.5625,5.5938 0,1.1936 -0.3606,2.2809 -1,3.1874 1.0675,-0.9615 1.75,-2.3347 1.75,-3.875 0,-2.9034 -2.3759,-5.2812 -5.3125,-5.2812 z"
       id="path17469-5-3-5-5-6-1-2"
       style="fill:#0094ff;fill-opacity:1;stroke:none" />
    <g
       transform="translate(-4162.6488,-5143.7246)"
       id="g16840-1-5-2-8-6-9-0-9-1-0-1-9-2-9"
       style="fill:#0094ff;fill-opacity:1">
      <path
         d="m 4466.4952,5594.2762 2.5625,2.2812 -24.062,26.938 -4.5625,0 26.062,-29.219 z"
         id="path4388-9-7-4-2-2-0-5-7-6-5-1-3-3-9-8-5-7-5-7-0-2-2-4-0-3-3-5-9-5-3-2-1-1-4-8-9-2-1-3-0-8-4-7-7-5-3-2-9-3-8-63-1-6-9-5-2-8-3-3-9-4-0-8-5-2-3-4-3-0-0-6-2-9-7-4-5-9-1-8-7-3-4-1"
         style="fill:#0094ff;fill-opacity:1" />
      <path
         d="m 4408.5919,5624.9832 c 2.1096,19.0121 11.449,32.6563 22.625,32.6563 1.0747,-0.065 2.1409,-0.1737 3.1562,-0.5 1.2764,-0.4103 2.4695,-1.002 3.5312,-1.8125 1.0618,-0.8105 2.0063,-1.8342 2.7188,-3.0312 l 0.031,-0.063 c 0.5876,-1.0092 0.9669,-2.1335 1.1563,-3.2812 0.1894,-1.1477 0.1898,-2.3486 -0.031,-3.4688 -0.221,-1.1201 -0.6687,-2.1669 -1.3124,-3.0937 -0.6438,-0.9268 -1.4838,-1.7138 -2.5626,-2.2813 -0.6545,-0.3443 -1.4036,-0.5596 -2.1562,-0.6562 -0.7526,-0.097 -1.5015,-0.078 -2.2188,0.094 -0.7172,0.1714 -1.3845,0.4742 -1.9374,0.9062 -0.553,0.432 -1.0125,1.003 -1.3126,1.7188 -0.2885,0.6882 -0.2991,1.6293 -0.062,2.375 0.1182,0.3728 0.2726,0.6983 0.5,0.9374 0.2273,0.2392 0.5254,0.4116 0.9062,0.5 0.1456,0.034 0.5823,-0.013 0.8125,-0.125 0.115,-0.055 0.1775,-0.1109 0.1875,-0.125 0.01,-0.014 -0.018,0.013 -0.031,-0.062 a 0.91483008,0.91483008 0 0 1 0,-0.031 0.91483008,0.91483008 0 0 1 0,-0.094 0.91483008,0.91483008 0 0 1 0,-0.094 0.91483008,0.91483008 0 0 1 0,-0.094 0.91483008,0.91483008 0 0 1 0.031,-0.094 0.91483008,0.91483008 0 0 1 0.031,-0.062 0.91483008,0.91483008 0 0 1 0.031,-0.094 0.91483008,0.91483008 0 0 1 0.062,-0.094 0.91483008,0.91483008 0 0 1 0.031,-0.062 0.91483008,0.91483008 0 0 1 0.063,-0.062 0.91483008,0.91483008 0 0 1 0.062,-0.062 0.91483008,0.91483008 0 0 1 0.094,-0.062 0.91483008,0.91483008 0 0 1 0.062,-0.062 0.91483008,0.91483008 0 0 1 0.094,-0.031 0.91483008,0.91483008 0 0 1 0.094,-0.031 0.91483008,0.91483008 0 0 1 0.062,-0.031 0.91483008,0.91483008 0 0 1 0.094,0 0.91483008,0.91483008 0 0 1 0.094,0 0.91483008,0.91483008 0 0 1 0.094,0 0.91483008,0.91483008 0 0 1 0.094,0 0.91483008,0.91483008 0 0 1 0.094,0.031 0.91483008,0.91483008 0 0 1 0.094,0.031 0.91483008,0.91483008 0 0 1 0.062,0.062 0.91483008,0.91483008 0 0 1 0.094,0.031 0.91483008,0.91483008 0 0 1 0.063,0.062 0.91483008,0.91483008 0 0 1 0.062,0.062 0.91483008,0.91483008 0 0 1 0.063,0.062 0.91483008,0.91483008 0 0 1 0.062,0.062 0.91483008,0.91483008 0 0 1 0.031,0.094 0.91483008,0.91483008 0 0 1 0.062,0.094 0.91483008,0.91483008 0 0 1 0,0.062 0.91483008,0.91483008 0 0 1 0.031,0.094 c 0.085,0.478 -0.042,0.9759 -0.2812,1.3438 -0.2386,0.368 -0.5738,0.6195 -0.9062,0.7812 -0.6647,0.3239 -1.367,0.4044 -2.0313,0.25 -0.7111,-0.1653 -1.2952,-0.5001 -1.75,-0.9687 -0.4548,-0.4686 -0.7792,-1.0588 -0.9687,-1.6563 -0.1896,-0.5974 -0.244,-1.2267 -0.2188,-1.8437 0.025,-0.617 0.1401,-1.2211 0.375,-1.7813 0.4187,-0.9987 1.0676,-1.7947 1.8438,-2.4062 0.7761,-0.6115 1.683,-1.0248 2.625,-1.25 0.9418,-0.2253 1.9378,-0.306 2.9062,-0.1875 0.9684,0.1185 1.9216,0.4228 2.7812,0.875 0.6715,0.3532 1.2484,0.7778 1.7813,1.25 0.5329,0.4722 1.0091,0.9963 1.4063,1.5625 0.7943,1.1325 1.326,2.4228 1.5937,3.7812 0.2677,1.3585 0.2685,2.7719 0.031,4.1563 -0.2031,1.1851 -0.6606,2.307 -1.2188,3.375 5.8264,-5.6089 10.0906,-15.5204 11.4375,-27.6563 l -45.2187,0 z"
         id="path4398-0-8-6-5-9-1-8-9-8-8-8-6-9-2-8-1-9-6-4-0-3-4-0-4-7-5-7-7-7-1-7-3-9-3-1-6-9-8-3-4-3-6-1-8-8-3-3-6-9-3-3-3-7-8-0-5-2-0-5-9-6-1-5-6-9-2-4-7-63-0-4-6-7-4-1-8-6-3-50-9-8-4"
         style="fill:#0094ff;fill-opacity:1" />
    </g>
    <g
       transform="translate(-4162.6488,-5143.7246)"
       id="g16844-9-0-2-7-7-5-6-6-7-8-0-7-8-9"
       style="fill:#ffffff;fill-opacity:1">
      <path
         d="m 4748.1562,6048.3125 c 0,14.404 3.1257,27.1499 8.1876,36.4687 2.5309,4.6594 5.5426,8.468 8.9062,11.1876 2.8345,2.2911 5.9213,3.8162 9.1562,4.4374 -1.9804,1.3714 -3.7514,3.0371 -5.125,4.9688 l -0.031,0.031 c -2.3825,3.3672 -3.4738,7.6004 -3,11.5313 0.4739,3.9309 2.6026,7.5876 6.625,9.6875 1.0245,0.5348 2.1631,0.9167 3.3438,1.125 0,0 0,-9.7638 0,4.2812 l -4.2813,0 0,3.0313 4.2813,0 0,4.2813 3.0312,0 0,-4.2813 4.2812,0 0,-3.0313 -4.2812,0 0,-4.125 c 0.3791,-0.03 0.781,-0.057 1.1562,-0.125 2.5851,-0.4645 5.0332,-1.9209 6.2813,-4.4374 0.5917,-1.1932 0.7734,-2.638 0.4375,-3.9688 -0.336,-1.3308 -1.2904,-2.6012 -2.9375,-3 -0.6445,-0.1561 -1.356,-0.1038 -2.0625,0.1562 -0.3532,0.1302 -0.7111,0.3043 -1,0.625 -0.2889,0.3209 -0.4726,0.8206 -0.4688,1.2813 0.015,0.5286 0.4756,0.9946 0.9665,0.9782 0.4909,-0.016 0.9237,-0.5121 0.9085,-1.0407 -6e-4,-0.068 -0.019,-0.071 0,-0.094 0.021,-0.023 0.088,-0.077 0.2188,-0.125 0.2614,-0.096 0.7296,-0.1048 0.9062,-0.062 0.9525,0.2307 1.4603,0.8502 1.6876,1.75 0.2272,0.8996 0.051,2.0177 -0.3438,2.8124 -0.9662,1.9481 -2.7578,3.0259 -4.875,3.4063 -0.285,0.051 -0.583,0.1012 -0.875,0.125 l 0,-18.2813 0,-7.25 c 3.9043,-0.3397 7.6086,-1.9969 10.9688,-4.7187 3.36,-2.7217 6.3784,-6.4975 8.9062,-11.1563 5.0558,-9.3172 8.1564,-22.0737 8.1562,-36.4687 z m 3.1563,2.6875 52.8437,0 c 0,26.565 -11.8455,46.8435 -26.4374,46.8438 -14.592,0 -26.4063,-20.2788 -26.4063,-46.8438 z m 24.9063,50.25 0,6.6562 0,18.0626 c -0.8479,-0.1869 -1.6523,-0.4668 -2.375,-0.8438 l -0.031,-0.031 c -3.4558,-1.8216 -5.2679,-4.9565 -5.6875,-8.4376 -0.4213,-3.4943 0.567,-7.3159 2.6875,-10.3124 1.4174,-2.0034 3.2722,-3.7418 5.4063,-5.0938 z"
         transform="translate(-346.49851,-437.5268)"
         id="path4390-7-9-6-8-1-0-3-0-7-2-1-4-6-2-7-9-1-3-2-3-2-6-4-2-3-6-2-4-7-8-9-7-9-0-4-1-8-2-2-3-8-6-7-3-0-0-5-6-1-1-8-6-5-9-8-1-8-9-3-6-9-5-5-4-8-0-0-6-25-34-8-7-8-0-8-0-9-8-9-3-0-0"
         style="fill:#ffffff;fill-opacity:1" />
      <g
         id="text4433-2-3-0-8-3-7-3-8-5-3-6-2-5-5-8-2-6-7-6-4-6-5-3-9-3-2-36-5-2-5-5-4-9-9-4-2-9-6-5-6-1-3-4-7-7-4-8-2-6-0-2-9-9-8-8-3"
         style="font-size:19.79144669px;font-style:normal;font-weight:normal;line-height:125%;letter-spacing:0px;word-spacing:0px;fill:#ffffff;font-family:Sans">
        <path
           d="m 4409.9955,5593.4748 3.7206,0 0,11.6159 6.5327,0 0,2.8121 -10.2533,0 0,-14.428"
           id="path5111"
           style="font-variant:normal;font-weight:bold;font-stretch:normal;fill:#ffffff;font-family:DejaVu Sans" />
        <path
           d="m 4429.584,5608.1638 -0.2899,0 c -2.3773,0 -4.2263,-0.6572 -5.547,-1.9715 -1.3207,-1.3142 -1.9811,-3.1439 -1.9811,-5.489 0,-2.3386 0.6571,-4.1715 1.9714,-5.4987 1.3207,-1.3271 3.1375,-1.9907 5.4504,-1.9907 2.3386,0 4.1586,0.6571 5.46,1.9714 1.3079,1.3143 1.9618,3.1536 1.9618,5.518 0,1.6235 -0.3479,3.0216 -1.0437,4.1941 -0.6894,1.1725 -1.6847,2.0552 -2.9861,2.6479 l 2.9088,3.247 -3.5466,0 -2.358,-2.6285 m -0.3962,-12.2537 c -1.1339,0 -2.0133,0.4187 -2.6382,1.2563 -0.625,0.8375 -0.9374,2.0165 -0.9374,3.5369 0,1.5462 0.306,2.7316 0.9181,3.5563 0.612,0.8182 1.4978,1.2273 2.6575,1.2273 1.1403,0 2.0229,-0.4188 2.6479,-1.2563 0.6249,-0.8375 0.9374,-2.0133 0.9374,-3.5273 0,-1.5204 -0.3125,-2.6994 -0.9374,-3.5369 -0.625,-0.8376 -1.5076,-1.2563 -2.6479,-1.2563"
           id="path5113"
           style="font-variant:normal;font-weight:bold;font-stretch:normal;fill:#ffffff;font-family:DejaVu Sans" />
        <path
           d="m 4444.6982,5599.8722 c 0.7795,0 1.3368,-0.1449 1.6718,-0.4349 0.3415,-0.2899 0.5122,-0.7666 0.5122,-1.4302 0,-0.6571 -0.1707,-1.1274 -0.5122,-1.4109 -0.335,-0.2835 -0.8923,-0.4252 -1.6718,-0.4252 l -1.5656,0 0,3.7012 1.5656,0 m -1.5656,2.5706 0,5.46 -3.7205,0 0,-14.428 5.6823,0 c 1.9005,0 3.2921,0.3189 4.1748,0.9567 0.889,0.6378 1.3335,1.6461 1.3336,3.0248 -10e-5,0.9535 -0.232,1.7362 -0.6958,2.3483 -0.4575,0.612 -1.15,1.063 -2.0777,1.3529 0.5089,0.116 0.9631,0.3801 1.3625,0.7924 0.4059,0.4059 0.815,1.0244 1.2273,1.8555 l 2.0198,4.0974 -3.9622,0 -1.7588,-3.5852 c -0.3543,-0.7216 -0.7151,-1.2144 -1.0823,-1.4786 -0.3608,-0.2641 -0.844,-0.3962 -1.4496,-0.3962 l -1.0534,0"
           id="path5115"
           style="font-variant:normal;font-weight:bold;font-stretch:normal;fill:#ffffff;font-family:DejaVu Sans" />
      </g>
    </g>
  </g>
</svg>
