<?xml version="1.0" encoding="UTF-8" standalone="no"?>
<!-- Created with Inkscape (http://www.inkscape.org/) -->

<svg
   xmlns:dc="http://purl.org/dc/elements/1.1/"
   xmlns:cc="http://creativecommons.org/ns#"
   xmlns:rdf="http://www.w3.org/1999/02/22-rdf-syntax-ns#"
   xmlns:svg="http://www.w3.org/2000/svg"
   xmlns="http://www.w3.org/2000/svg"
   xmlns:xlink="http://www.w3.org/1999/xlink"
   xmlns:sodipodi="http://sodipodi.sourceforge.net/DTD/sodipodi-0.dtd"
   xmlns:inkscape="http://www.inkscape.org/namespaces/inkscape"
   version="1.1"
   width="142.24573"
   height="142.21579"
   id="svg5046"
   inkscape:version="0.48.4 r9939"
   sodipodi:docname="logo2_back.svg">
  <sodipodi:namedview
     pagecolor="#ffffff"
     bordercolor="#666666"
     borderopacity="1"
     objecttolerance="10"
     gridtolerance="10"
     guidetolerance="10"
     inkscape:pageopacity="0"
     inkscape:pageshadow="2"
     inkscape:window-width="1304"
     inkscape:window-height="746"
     id="namedview11419"
     showgrid="false"
     fit-margin-top="0"
     fit-margin-left="0"
     fit-margin-right="0"
     fit-margin-bottom="0"
     inkscape:zoom="2.8284271"
     inkscape:cx="87.733975"
     inkscape:cy="72.027204"
     inkscape:window-x="-8"
     inkscape:window-y="-8"
     inkscape:window-maximized="1"
     inkscape:current-layer="g3220" />
  <defs
     id="defs5048">
    <radialGradient
       cx="4502.7061"
       cy="6296.2231"
       r="73.794868"
       fx="4502.7061"
       fy="6296.2231"
       id="radialGradient17923"
       xlink:href="#linearGradient17913"
       gradientUnits="userSpaceOnUse"
       gradientTransform="matrix(0.99997278,-0.00737878,0.01086721,1.4727252,-68.82644,-2966.0752)" />
    <linearGradient
       id="linearGradient17913">
      <stop
         id="stop17915"
         style="stop-color:#466b87;stop-opacity:1"
         offset="0" />
      <stop
         id="stop17917"
         style="stop-color:#000000;stop-opacity:1"
         offset="1" />
    </linearGradient>
    <radialGradient
       cx="4502.7061"
       cy="6296.2231"
       r="73.794868"
       fx="4502.7061"
       fy="6296.2231"
       id="radialGradient5044"
       xlink:href="#linearGradient17913"
       gradientUnits="userSpaceOnUse"
       gradientTransform="matrix(0.99997278,-0.00737878,0.01086721,1.4727252,-68.82644,-2966.0752)" />
    <linearGradient
       inkscape:collect="always"
       xlink:href="#linearGradient11152"
       id="linearGradient11192"
       gradientUnits="userSpaceOnUse"
       x1="193.5786"
       y1="408.00232"
       x2="193.5786"
       y2="479.15912" />
    <linearGradient
       id="linearGradient11152">
      <stop
         style="stop-color:#ffffff;stop-opacity:1"
         offset="0"
         id="stop11154" />
      <stop
         style="stop-color:#ffffff;stop-opacity:0.07981221"
         offset="1"
         id="stop11156" />
    </linearGradient>
    <radialGradient
       inkscape:collect="always"
       xlink:href="#linearGradient11142"
       id="radialGradient11190"
       gradientUnits="userSpaceOnUse"
       gradientTransform="matrix(1.6273913,0,0,1.3152031,-2823.5341,-1998.4417)"
       cx="4500.2749"
       cy="6353.6602"
       fx="4500.2749"
       fy="6353.6602"
       r="73.794868" />
    <linearGradient
       id="linearGradient11142">
      <stop
         id="stop11144"
         offset="0"
         style="stop-color:#67eef3;stop-opacity:1" />
      <stop
         id="stop11148"
         offset="0.47270396"
         style="stop-color:#0fbfc6;stop-opacity:1" />
      <stop
         id="stop11150"
         offset="1"
         style="stop-color:#0da5ab;stop-opacity:1" />
    </linearGradient>
    <radialGradient
       r="73.794868"
       fy="6353.6602"
       fx="4500.2749"
       cy="6353.6602"
       cx="4500.2749"
       gradientTransform="matrix(1.6273913,0,0,1.3152031,-2823.5341,-1998.4417)"
       gradientUnits="userSpaceOnUse"
       id="radialGradient11395"
       xlink:href="#linearGradient11142"
       inkscape:collect="always" />
  </defs>
  <metadata
     id="metadata5051">
    <rdf:RDF>
      <cc:Work
         rdf:about="">
        <dc:format>image/svg+xml</dc:format>
        <dc:type
           rdf:resource="http://purl.org/dc/dcmitype/StillImage" />
        <dc:title />
      </cc:Work>
    </rdf:RDF>
  </metadata>
  <g
     id="g3220"
     style="fill:#000000">
    <g
       style="fill:#000000;opacity:0.50000000000000000"
       id="g3210">
      <path
         inkscape:connector-curvature="0"
         style="opacity:1;fill:#000000;fill-opacity:1;stroke:none"
         d="m 91.19124,119.5935 c -1.47131,1.8027 -3.20486,3.4011 -5.125,4.75 -0.9379,0.6585 -1.94194,1.2479 -2.96875,1.7813 -0.22681,0.1174 -0.45672,0.2328 -0.6875,0.3437 -0.40546,0.1956 -0.80156,0.3875 -1.21875,0.5626 -0.0218,0.01 -0.0407,0.022 -0.0625,0.031 -0.60094,0.2503 -1.22037,0.4502 -1.84375,0.6562 -0.54307,0.1795 -1.09762,0.3557 -1.65625,0.5 -0.21474,0.055 -0.43936,0.1064 -0.65625,0.1563 -0.4752,0.1093 -0.95256,0.2294 -1.4375,0.3125 -0.58383,0.1005 -1.1846,0.1576 -1.78125,0.2188 -0.36146,0.037 -0.72801,0.072 -1.09375,0.094 -0.53261,0.032 -1.0529,0.062 -1.59375,0.062 -0.50752,0 -0.99982,-0.034 -1.5,-0.062 -0.0311,0 -0.0627,0 -0.0937,0 -0.36444,-0.022 -0.73361,-0.057 -1.09375,-0.094 -0.51281,-0.052 -1.02791,-0.1065 -1.53125,-0.1876 -0.55635,-0.09 -1.08134,-0.219 -1.625,-0.3437 -0.02,0 -0.0425,0 -0.0625,0 -0.10412,-0.024 -0.20887,-0.037 -0.3125,-0.062 -0.11558,-0.028 -0.22879,-0.064 -0.34375,-0.094 -0.5457,-0.1416 -1.09417,-0.2935 -1.625,-0.4687 -0.64266,-0.2121 -1.28742,-0.4596 -1.90625,-0.7187 -0.61883,-0.2592 -1.21972,-0.54 -1.8125,-0.8438 -1.18557,-0.6076 -2.307,-1.2907 -3.375,-2.0625 -1.78445,-1.2906 -3.39326,-2.7784 -4.78125,-4.4687 4.2971,6.5167 11.6727,10.8124 20.0625,10.8124 8.4149,0 15.8336,-4.3257 20.125,-10.875 z"
         id="path11164" />
      <path
         inkscape:connector-curvature="0"
         style="opacity:1;fill:#000000;fill-opacity:1;stroke:none"
         d="m 78.90857,99.2076 c -0.7996,0 -1.5384,0.2187 -2.2188,0.5312 0.3927,-0.088 0.7997,-0.1562 1.2188,-0.1562 3.0758,0 5.5625,2.518 5.5625,5.5938 0,1.1936 -0.3606,2.2809 -1,3.1874 1.0675,-0.9615 1.75,-2.3347 1.75,-3.875 0,-2.9034 -2.3759,-5.2812 -5.3125,-5.2812 z"
         id="path11166" />
      <path
         style="opacity:1;fill:#000000;fill-opacity:1"
         d="M 106.40625 17.875 L 91.6875 34.375 L 41.5625 34.375 C 41.5625 48.779 44.6881 61.52495 49.75 70.84375 C 52.2809 75.50315 55.29265 79.31165 58.65625 82.03125 C 61.49075 84.32235 64.5776 85.84755 67.8125 86.46875 C 65.8321 87.84015 64.0611 89.5058 62.6875 91.4375 L 62.65625 91.46875 C 60.27375 94.83595 59.18245 99.0691 59.65625 103 C 60.13015 106.9309 62.25885 110.5876 66.28125 112.6875 C 67.30575 113.2223 68.4443 113.6042 69.625 113.8125 L 69.625 118.09375 L 65.34375 118.09375 L 65.34375 121.125 L 69.625 121.125 L 69.625 125.40625 L 72.65625 125.40625 L 72.65625 121.125 L 76.9375 121.125 L 76.9375 118.09375 L 72.65625 118.09375 L 72.65625 113.96875 C 73.03535 113.93875 73.4373 113.91175 73.8125 113.84375 C 76.3976 113.37925 78.84565 111.92275 80.09375 109.40625 C 80.68545 108.21305 80.86715 106.7683 80.53125 105.4375 C 80.19525 104.1067 79.24085 102.8363 77.59375 102.4375 C 76.94925 102.2814 76.23775 102.33375 75.53125 102.59375 C 75.17805 102.72395 74.82015 102.89805 74.53125 103.21875 C 74.24235 103.53965 74.0587 104.0393 74.0625 104.5 C 74.0775 105.0286 74.54035 105.48515 75.03125 105.46875 C 75.52215 105.45275 75.9527 104.9661 75.9375 104.4375 C 75.9369 104.3695 75.9185 104.36675 75.9375 104.34375 C 75.9585 104.32075 76.02545 104.26675 76.15625 104.21875 C 76.41765 104.12275 76.8859 104.11345 77.0625 104.15625 C 78.015 104.38695 78.5227 105.00645 78.75 105.90625 C 78.9772 106.80585 78.80105 107.92405 78.40625 108.71875 C 77.44005 110.66685 75.64845 111.7446 73.53125 112.125 C 73.24625 112.176 72.94825 112.2262 72.65625 112.25 L 72.65625 93.96875 L 72.65625 86.71875 C 76.56055 86.37905 80.2648 84.7218 83.625 82 C 86.985 79.2783 90.00345 75.50255 92.53125 70.84375 C 97.58705 61.52655 100.6877 48.77 100.6875 34.375 L 96.28125 34.375 L 108.96875 20.15625 L 106.40625 17.875 z M 44.71875 37.0625 L 89.28125 37.0625 L 80.34375 47.09375 L 84.90625 47.09375 L 93.875 37.0625 L 97.5625 37.0625 C 97.5625 63.6275 85.7169 83.90595 71.125 83.90625 C 56.533 83.90625 44.71875 63.6275 44.71875 37.0625 z M 69.625 87.3125 L 69.625 93.96875 L 69.625 112.03125 C 68.7771 111.84435 67.9727 111.5645 67.25 111.1875 L 67.21875 111.15625 C 63.76295 109.33465 61.95085 106.19985 61.53125 102.71875 C 61.10995 99.22445 62.09825 95.40275 64.21875 92.40625 C 65.63615 90.40285 67.4909 88.6645 69.625 87.3125 z "
         id="path11170" />
      <path
         id="path11172"
         d="m 48.4916,48.5766 c 2.1096,19.0121 11.449,32.6563 22.625,32.6563 1.0747,-0.065 2.1409,-0.1737 3.1562,-0.5 1.2764,-0.4103 2.4695,-1.002 3.5312,-1.8125 1.0618,-0.8105 2.0063,-1.8342 2.7188,-3.0312 l 0.031,-0.063 c 0.5876,-1.0092 0.9669,-2.1335 1.1563,-3.2812 0.1894,-1.1477 0.1898,-2.3486 -0.031,-3.4688 -0.221,-1.1201 -0.6687,-2.1669 -1.3124,-3.0937 -0.6438,-0.9268 -1.4838,-1.7138 -2.5626,-2.2813 -0.6545,-0.3443 -1.4036,-0.5596 -2.1562,-0.6562 -0.7526,-0.097 -1.5015,-0.078 -2.2188,0.094 -0.7172,0.1714 -1.3845,0.4742 -1.9374,0.9062 -0.553,0.432 -1.0125,1.003 -1.3126,1.7188 -0.2885,0.6882 -0.2991,1.6293 -0.062,2.375 0.1182,0.3728 0.2726,0.6983 0.5,0.9374 0.2273,0.2392 0.5254,0.4116 0.9062,0.5 0.1456,0.034 0.5823,-0.013 0.8125,-0.125 0.115,-0.055 0.1775,-0.1109 0.1875,-0.125 0.01,-0.014 -0.018,0.013 -0.031,-0.062 a 0.91483008,0.91483008 0 0 1 0,-0.031 0.91483008,0.91483008 0 0 1 0,-0.094 0.91483008,0.91483008 0 0 1 0,-0.094 0.91483008,0.91483008 0 0 1 0,-0.094 0.91483008,0.91483008 0 0 1 0.031,-0.094 0.91483008,0.91483008 0 0 1 0.031,-0.062 0.91483008,0.91483008 0 0 1 0.031,-0.094 0.91483008,0.91483008 0 0 1 0.062,-0.094 0.91483008,0.91483008 0 0 1 0.031,-0.062 0.91483008,0.91483008 0 0 1 0.063,-0.062 0.91483008,0.91483008 0 0 1 0.062,-0.062 0.91483008,0.91483008 0 0 1 0.094,-0.062 0.91483008,0.91483008 0 0 1 0.062,-0.062 0.91483008,0.91483008 0 0 1 0.094,-0.031 0.91483008,0.91483008 0 0 1 0.094,-0.031 0.91483008,0.91483008 0 0 1 0.062,-0.031 0.91483008,0.91483008 0 0 1 0.094,0 0.91483008,0.91483008 0 0 1 0.094,0 0.91483008,0.91483008 0 0 1 0.094,0 0.91483008,0.91483008 0 0 1 0.094,0 0.91483008,0.91483008 0 0 1 0.094,0.031 0.91483008,0.91483008 0 0 1 0.094,0.031 0.91483008,0.91483008 0 0 1 0.062,0.062 0.91483008,0.91483008 0 0 1 0.094,0.031 0.91483008,0.91483008 0 0 1 0.063,0.062 0.91483008,0.91483008 0 0 1 0.062,0.062 0.91483008,0.91483008 0 0 1 0.063,0.062 0.91483008,0.91483008 0 0 1 0.062,0.062 0.91483008,0.91483008 0 0 1 0.031,0.094 0.91483008,0.91483008 0 0 1 0.062,0.094 0.91483008,0.91483008 0 0 1 0,0.062 0.91483008,0.91483008 0 0 1 0.031,0.094 c 0.085,0.478 -0.042,0.9759 -0.2812,1.3438 -0.2386,0.368 -0.5738,0.6195 -0.9062,0.7812 -0.6647,0.3239 -1.367,0.4044 -2.0313,0.25 -0.7111,-0.1653 -1.2952,-0.5001 -1.75,-0.9687 -0.4548,-0.4686 -0.7792,-1.0588 -0.9687,-1.6563 -0.1896,-0.5974 -0.244,-1.2267 -0.2188,-1.8437 0.025,-0.617 0.1401,-1.2211 0.375,-1.7813 0.4187,-0.9987 1.0676,-1.7947 1.8438,-2.4062 0.7761,-0.6115 1.683,-1.0248 2.625,-1.25 0.9418,-0.2253 1.9378,-0.306 2.9062,-0.1875 0.9684,0.1185 1.9216,0.4228 2.7812,0.875 0.6715,0.3532 1.2484,0.7778 1.7813,1.25 0.5329,0.4722 1.0091,0.9963 1.4063,1.5625 0.7943,1.1325 1.326,2.4228 1.5937,3.7812 0.2677,1.3585 0.2685,2.7719 0.031,4.1563 -0.2031,1.1851 -0.6606,2.307 -1.2188,3.375 5.8264,-5.6089 10.0906,-15.5204 11.4375,-27.6563 l -45.2187,0 z"
         style="opacity:1;fill:#000000;fill-opacity:1"
         inkscape:connector-curvature="0" />
      <g
         style="font-size:19.79144669000000100px;font-style:normal;font-weight:normal;line-height:125%;letter-spacing:0px;word-spacing:0px;opacity:1;fill:#000000;fill-opacity:1;font-family:Sans"
         id="text11186"
         transform="translate(-4360.1003,-5576.4065)">
        <path
           d="m 4409.9955,5593.4748 3.7206,0 0,11.6159 6.5327,0 0,2.8121 -10.2533,0 0,-14.428"
           style="font-variant:normal;font-weight:bold;font-stretch:normal;fill:#000000;font-family:DejaVu Sans"
           id="path11505"
           inkscape:connector-curvature="0" />
        <path
           d="m 4429.584,5608.1638 -0.2899,0 c -2.3773,0 -4.2263,-0.6572 -5.547,-1.9715 -1.3207,-1.3142 -1.9811,-3.1439 -1.9811,-5.489 0,-2.3386 0.6571,-4.1715 1.9714,-5.4987 1.3207,-1.3271 3.1375,-1.9907 5.4504,-1.9907 2.3386,0 4.1586,0.6571 5.46,1.9714 1.3079,1.3143 1.9618,3.1536 1.9618,5.518 0,1.6235 -0.3479,3.0216 -1.0437,4.1941 -0.6894,1.1725 -1.6847,2.0552 -2.9861,2.6479 l 2.9088,3.247 -3.5466,0 -2.358,-2.6285 m -0.3962,-12.2537 c -1.1339,0 -2.0133,0.4187 -2.6382,1.2563 -0.625,0.8375 -0.9374,2.0165 -0.9374,3.5369 0,1.5462 0.306,2.7316 0.9181,3.5563 0.612,0.8182 1.4978,1.2273 2.6575,1.2273 1.1403,0 2.0229,-0.4188 2.6479,-1.2563 0.6249,-0.8375 0.9374,-2.0133 0.9374,-3.5273 0,-1.5204 -0.3125,-2.6994 -0.9374,-3.5369 -0.625,-0.8376 -1.5076,-1.2563 -2.6479,-1.2563"
           style="font-variant:normal;font-weight:bold;font-stretch:normal;fill:#000000;font-family:DejaVu Sans"
           id="path11507"
           inkscape:connector-curvature="0" />
        <path
           d="m 4444.6982,5599.8722 c 0.7795,0 1.3368,-0.1449 1.6718,-0.4349 0.3415,-0.2899 0.5122,-0.7666 0.5122,-1.4302 0,-0.6571 -0.1707,-1.1274 -0.5122,-1.4109 -0.335,-0.2835 -0.8923,-0.4252 -1.6718,-0.4252 l -1.5656,0 0,3.7012 1.5656,0 m -1.5656,2.5706 0,5.46 -3.7205,0 0,-14.428 5.6823,0 c 1.9005,0 3.2921,0.3189 4.1748,0.9567 0.889,0.6378 1.3335,1.6461 1.3336,3.0248 -10e-5,0.9535 -0.232,1.7362 -0.6958,2.3483 -0.4575,0.612 -1.15,1.063 -2.0777,1.3529 0.5089,0.116 0.9631,0.3801 1.3625,0.7924 0.4059,0.4059 0.815,1.0244 1.2273,1.8555 l 2.0198,4.0974 -3.9622,0 -1.7588,-3.5852 c -0.3543,-0.7216 -0.7151,-1.2144 -1.0823,-1.4786 -0.3608,-0.2641 -0.844,-0.3962 -1.4496,-0.3962 l -1.0534,0"
           style="font-variant:normal;font-weight:bold;font-stretch:normal;fill:#000000;font-family:DejaVu Sans"
           id="path11509"
           inkscape:connector-curvature="0" />
      </g>
    </g>
  </g>
</svg>
